<svg xmlns="http://www.w3.org/2000/svg" xmlns:xlink="http://www.w3.org/1999/xlink" width="20" height="20" viewBox="0 0 20 20">
  <metadata><?xpacket begin="﻿" id="W5M0MpCehiHzreSzNTczkc9d"?>
<x:xmpmeta xmlns:x="adobe:ns:meta/" x:xmptk="Adobe XMP Core 5.6-c138 79.159824, 2016/09/14-01:09:01        ">
   <rdf:RDF xmlns:rdf="http://www.w3.org/1999/02/22-rdf-syntax-ns#">
      <rdf:Description rdf:about=""/>
   </rdf:RDF>
</x:xmpmeta>
                                                                                                    
                                                                                                    
                                                                                                    
                                                                                                    
                                                                                                    
                                                                                                    
                                                                                                    
                                                                                                    
                                                                                                    
                                                                                                    
                                                                                                    
                                                                                                    
                                                                                                    
                                                                                                    
                                                                                                    
                                                                                                    
                                                                                                    
                                                                                                    
                                                                                                    
                                                                                                    
                           
<?xpacket end="w"?></metadata>
<defs>
    <style>
      .cls-1 {
        fill: #fff;
        fill-rule: evenodd;
        filter: url(#filter);
      }
    </style>
    <filter id="filter" x="898" y="692" width="20" height="20" filterUnits="userSpaceOnUse">
      <feFlood result="flood" flood-color="#815ca6"/>
      <feComposite result="composite" operator="in" in2="SourceGraphic"/>
      <feBlend result="blend" in2="SourceGraphic"/>
    </filter>
  </defs>
  <path id="Check-box_Checked_copy_2" data-name="Check-box  (Checked) copy 2" class="cls-1" d="M903,692h10a5,5,0,0,1,5,5v10a5,5,0,0,1-5,5H903a5,5,0,0,1-5-5V697A5,5,0,0,1,903,692Zm10.4,6.361a0.372,0.372,0,0,0-.529,0l-5.584,5.567a0.37,0.37,0,0,1-.53,0l-2.446-2.5a0.371,0.371,0,0,0-.263-0.11,0.366,0.366,0,0,0-.267.11l-1.081.974a0.372,0.372,0,0,0-.111.263,0.39,0.39,0,0,0,.111.273l2.466,2.592,0.531,0.536,1.06,1.071a0.375,0.375,0,0,0,.53,0l7.174-7.174a0.381,0.381,0,0,0,0-.535Z" transform="translate(-898 -692)"/>
</svg>
